<svg width="586" height="75" viewBox="0 0 586 75" fill="none" xmlns="http://www.w3.org/2000/svg">
<path d="M26.1341 73.8214V14.7436H0V2.42126H71.272V14.7436H45.0689V73.8214H26.1341Z" fill="white"/>
<path d="M77.667 7.4689C77.667 3.16426 82.0555 0 87.445 0C92.8346 0 97.2231 3.16426 97.2231 7.4689C97.2231 11.6762 92.8346 14.9417 87.445 14.9417C82.0555 14.9417 77.667 11.6762 77.667 7.4689ZM78.2932 20.7798H96.5969V73.8211H78.2932V20.7798Z" fill="white"/>
<path d="M108.763 20.7796H126.44V30.3308H126.815C130.636 23.5508 137.471 19.9895 147.816 19.9895C162.732 19.9895 171.134 27.4078 171.134 39.8391V73.8326H152.831V42.8477C152.831 35.9198 148.753 31.9499 140.419 31.9499C132.086 31.9499 127.066 36.6982 127.066 43.6261V73.8092H108.763V20.7796Z" fill="white"/>
<path d="M224.541 20.7802H245.29L219.649 43.541L246.538 73.8214H225.477L206.247 52.2476L201.483 56.3071V73.8214H183.18V2.42126H201.483V42.0543H201.735L224.541 20.7802Z" fill="white"/>
<path d="M309.985 57.5913C307.978 67.9326 295.818 74.7632 279.329 74.7632C258.767 74.7632 246.232 64.4219 246.232 47.5498C246.232 30.6776 258.831 19.8381 278.639 19.8381C298.136 19.8381 310.547 30.0821 310.547 46.2109V50.6167H264.225V51.508C264.225 58.9769 270.429 64.0756 279.645 64.0756C286.227 64.0756 291.479 61.6002 293.185 57.5913H309.985ZM264.413 41.7545H292.933C292.559 34.9783 286.918 30.5219 278.831 30.5219C270.867 30.5258 265.039 35.1379 264.413 41.7545Z" fill="white"/>
<path d="M319.95 20.78H337.628V30.3312H338.007C340.325 23.7497 346.094 20.1378 353.989 20.1378C355.75 20.1042 357.507 20.288 359.196 20.6827V33.3981C357.716 32.9038 355.182 32.5574 352.549 32.5574C343.52 32.5574 338.249 36.9088 338.249 44.3815V73.8212H319.945L319.95 20.78Z" fill="white"/>
<path d="M430.403 73.8214V41.3148H380.759V73.8214H369.477V2.42126H380.759V33.2971H430.403V2.42126H441.69V73.8214H430.403Z" fill="white"/>
<path d="M511.085 73.8208H500.729V65.2583H500.493C496.484 71.2443 489.837 74.3112 479.783 74.3112C465.552 74.3112 457.219 67.037 457.219 55.3607V22.3638H468.126V53.8195C468.126 62.1835 473.057 66.6633 483.17 66.6633C493.762 66.6633 500.157 60.9264 500.157 52.1692V22.3638H511.065L511.085 73.8208Z" fill="white"/>
<path d="M536.41 65.1072H536.158V73.8138H525.754V2.42126H536.661V30.7245H536.913C540.986 25.0849 548.569 21.87 557.785 21.87C574.21 21.87 585.305 32.3786 585.305 48.091C585.305 63.8033 574.21 74.3158 557.598 74.3158C548.071 74.3158 540.611 71.0504 536.41 65.1072ZM536.597 48.0832C536.597 59.1678 544.245 66.6873 555.468 66.6873C566.691 66.6873 574.146 59.4169 574.146 48.0832C574.146 36.7494 566.75 29.479 555.468 29.479C544.186 29.479 536.597 37.0569 536.597 48.091V48.0832Z" fill="white"/>
</svg>
